<mxfile host="app.diagrams.net" agent="Mozilla/5.0 (Windows NT 10.0; Win64; x64) AppleWebKit/537.36 (KHTML, like Gecko) Chrome/134.0.0.0 Safari/537.36" version="26.1.0">
  <diagram name="Page-1" id="VRbGhbcaT4jTud78ZenN">
    <mxGraphModel dx="3021" dy="2285" grid="1" gridSize="10" guides="1" tooltips="1" connect="1" arrows="1" fold="1" page="1" pageScale="1" pageWidth="850" pageHeight="1100" math="0" shadow="0">
      <root>
        <mxCell id="0" />
        <mxCell id="1" parent="0" />
        <mxCell id="RWk9WnBIg7F_4jbduYXB-1" value="m_betheheitler" style="rounded=0;whiteSpace=wrap;html=1;fillColor=#007FFF;" parent="1" vertex="1">
          <mxGeometry x="905" y="-320" width="120" height="70" as="geometry" />
        </mxCell>
        <mxCell id="RWk9WnBIg7F_4jbduYXB-2" value="os-axions-define" style="rounded=0;whiteSpace=wrap;html=1;" parent="1" vertex="1">
          <mxGeometry x="1416" y="-390" width="120" height="60" as="geometry" />
        </mxCell>
        <mxCell id="RWk9WnBIg7F_4jbduYXB-3" value="os-photons-define" style="rounded=0;whiteSpace=wrap;html=1;" parent="1" vertex="1">
          <mxGeometry x="1416" y="-240" width="120" height="60" as="geometry" />
        </mxCell>
        <mxCell id="RWk9WnBIg7F_4jbduYXB-4" value="os-particles-qed" style="rounded=0;whiteSpace=wrap;html=1;" parent="1" vertex="1">
          <mxGeometry x="1416" y="-540" width="120" height="60" as="geometry" />
        </mxCell>
        <mxCell id="RWk9WnBIg7F_4jbduYXB-14" style="edgeStyle=orthogonalEdgeStyle;rounded=0;orthogonalLoop=1;jettySize=auto;html=1;exitX=1;exitY=0.5;exitDx=0;exitDy=0;entryX=0;entryY=0.5;entryDx=0;entryDy=0;" parent="1" source="RWk9WnBIg7F_4jbduYXB-5" target="RWk9WnBIg7F_4jbduYXB-8" edge="1">
          <mxGeometry relative="1" as="geometry" />
        </mxCell>
        <mxCell id="RWk9WnBIg7F_4jbduYXB-5" value="m_bremsstrahlung" style="rounded=0;whiteSpace=wrap;html=1;fillColor=#007FFF;" parent="1" vertex="1">
          <mxGeometry x="-190" y="-30" width="120" height="60" as="geometry" />
        </mxCell>
        <mxCell id="RWk9WnBIg7F_4jbduYXB-6" value="&lt;span style=&quot;color: rgb(31, 35, 40); font-family: -apple-system, BlinkMacSystemFont, &amp;quot;Segoe UI&amp;quot;, &amp;quot;Noto Sans&amp;quot;, Helvetica, Arial, sans-serif, &amp;quot;Apple Color Emoji&amp;quot;, &amp;quot;Segoe UI Emoji&amp;quot;; text-align: start; background-color: rgb(255, 255, 255);&quot;&gt;&lt;font style=&quot;font-size: 12px;&quot;&gt;os-spec-define-qed&lt;/font&gt;&lt;/span&gt;" style="rounded=0;whiteSpace=wrap;html=1;" parent="1" vertex="1">
          <mxGeometry x="140" y="520" width="120" height="60" as="geometry" />
        </mxCell>
        <mxCell id="RWk9WnBIg7F_4jbduYXB-15" style="edgeStyle=orthogonalEdgeStyle;rounded=0;orthogonalLoop=1;jettySize=auto;html=1;exitX=1;exitY=0.5;exitDx=0;exitDy=0;entryX=0;entryY=0.5;entryDx=0;entryDy=0;" parent="1" source="RWk9WnBIg7F_4jbduYXB-7" target="RWk9WnBIg7F_4jbduYXB-6" edge="1">
          <mxGeometry relative="1" as="geometry" />
        </mxCell>
        <mxCell id="RWk9WnBIg7F_4jbduYXB-7" value="m_trident_coul" style="rounded=0;whiteSpace=wrap;html=1;fillColor=#007FFF;" parent="1" vertex="1">
          <mxGeometry x="-190" y="520" width="120" height="60" as="geometry" />
        </mxCell>
        <mxCell id="RWk9WnBIg7F_4jbduYXB-8" value="&lt;span style=&quot;color: rgb(31, 35, 40); font-family: -apple-system, BlinkMacSystemFont, &amp;quot;Segoe UI&amp;quot;, &amp;quot;Noto Sans&amp;quot;, Helvetica, Arial, sans-serif, &amp;quot;Apple Color Emoji&amp;quot;, &amp;quot;Segoe UI Emoji&amp;quot;; text-align: start; background-color: rgb(255, 255, 255);&quot;&gt;&lt;font style=&quot;font-size: 12px;&quot;&gt;os-spec-define-qed&lt;/font&gt;&lt;/span&gt;" style="rounded=0;whiteSpace=wrap;html=1;" parent="1" vertex="1">
          <mxGeometry x="140" y="-30" width="120" height="60" as="geometry" />
        </mxCell>
        <mxCell id="RWk9WnBIg7F_4jbduYXB-16" value="" style="endArrow=none;html=1;rounded=0;" parent="1" edge="1">
          <mxGeometry width="50" height="50" relative="1" as="geometry">
            <mxPoint x="640" y="1893.3333333333333" as="sourcePoint" />
            <mxPoint x="640" y="-1050" as="targetPoint" />
          </mxGeometry>
        </mxCell>
        <mxCell id="RWk9WnBIg7F_4jbduYXB-17" value="" style="endArrow=none;html=1;rounded=0;" parent="1" edge="1">
          <mxGeometry width="50" height="50" relative="1" as="geometry">
            <mxPoint x="2150" y="360" as="sourcePoint" />
            <mxPoint x="-308" y="360" as="targetPoint" />
          </mxGeometry>
        </mxCell>
        <mxCell id="RWk9WnBIg7F_4jbduYXB-18" value="&lt;div&gt;Section 1:&lt;/div&gt;&lt;div&gt;In &quot;t_photons&quot;, setting (num,energy,weigh)_pairs,&amp;nbsp;&lt;br&gt;&lt;/div&gt;&lt;div&gt;-------&lt;/div&gt;Section 2:&lt;div&gt;Initializing Bethe-Heitler Pair Creation Info&lt;/div&gt;&lt;div&gt;-------&lt;/div&gt;&lt;div&gt;Section 3:&amp;nbsp;&lt;/div&gt;&lt;div&gt;Initializing&amp;nbsp;&lt;span style=&quot;background-color: initial;&quot;&gt;(num,energy,weigh)_pairs&lt;/span&gt;&lt;/div&gt;&lt;div&gt;-------&lt;/div&gt;&lt;div&gt;Section 4:&amp;nbsp;&lt;/div&gt;&lt;div&gt;setting up vdf with ion density for Bethe-Heitler&lt;/div&gt;&lt;div&gt;------&lt;/div&gt;&lt;div&gt;Section 5:&lt;/div&gt;&lt;div&gt;Function: get_energy_pairs (for BW and BH pairs)&lt;/div&gt;&lt;div&gt;-------&lt;/div&gt;&lt;div&gt;Section 6:&lt;/div&gt;&lt;div&gt;Reading/Writing checkpoint files&lt;/div&gt;" style="rounded=1;whiteSpace=wrap;html=1;" parent="1" vertex="1">
          <mxGeometry x="1547" y="-310" width="270" height="280" as="geometry" />
        </mxCell>
        <mxCell id="RWk9WnBIg7F_4jbduYXB-19" value="Section 1:&lt;div&gt;&quot;procedurizing&quot;&amp;nbsp;init_betheheitler&lt;/div&gt;&lt;div&gt;------&lt;/div&gt;&lt;div&gt;Section 2:&amp;nbsp;&lt;/div&gt;&lt;div&gt;Calling init_betheheitler to&amp;nbsp;Read Bethe Heitler bloc in the input deck&lt;/div&gt;&lt;div&gt;------&lt;/div&gt;&lt;div&gt;Section 3:&amp;nbsp;&lt;/div&gt;&lt;div&gt;Subroutine init_betheheitler&lt;/div&gt;" style="rounded=1;whiteSpace=wrap;html=1;" parent="1" vertex="1">
          <mxGeometry x="1546" y="-580" width="270" height="140" as="geometry" />
        </mxCell>
        <mxCell id="RWk9WnBIg7F_4jbduYXB-27" value="Repetition of the same lines in os-photons-define" style="rounded=1;whiteSpace=wrap;html=1;" parent="1" vertex="1">
          <mxGeometry x="1546" y="-400" width="175" height="80" as="geometry" />
        </mxCell>
        <mxCell id="P1NVYwnlqDmwQnl8Z5pu-1" value="Section 1:&lt;div&gt;Initializing Bremsstrahlung emission Info&lt;/div&gt;&lt;div&gt;-------&lt;/div&gt;&lt;div&gt;Section 2:&amp;nbsp;&lt;/div&gt;&lt;div&gt;setting up vdf with ion density for Bremsstrahlung&lt;/div&gt;" style="rounded=1;whiteSpace=wrap;html=1;" parent="1" vertex="1">
          <mxGeometry x="295" y="-60" width="260" height="120" as="geometry" />
        </mxCell>
        <mxCell id="P1NVYwnlqDmwQnl8Z5pu-2" value="Section 1:&lt;div&gt;Initializing Trident-Coulomb pair-creation Info&lt;/div&gt;&lt;div&gt;-------&lt;/div&gt;&lt;div&gt;Section 2:&lt;/div&gt;&lt;div&gt;Diagnostic for trident_coul pair production&lt;/div&gt;&lt;div&gt;-------&lt;/div&gt;&lt;div&gt;Section 3:&amp;nbsp;&lt;/div&gt;&lt;div&gt;Initializing Trident_coul diagnostic&lt;/div&gt;&lt;div&gt;-------&lt;/div&gt;&lt;div&gt;Section 4:&lt;/div&gt;&lt;div&gt;setting up vdf with ion density for Trident-Coulomb&lt;/div&gt;&lt;div&gt;-------&lt;/div&gt;&lt;div&gt;Section 5:&lt;/div&gt;&lt;div&gt;&lt;div&gt;Getting the pairs energy (get_energy_pairs_ct)&lt;/div&gt;&lt;/div&gt;" style="rounded=1;whiteSpace=wrap;html=1;" parent="1" vertex="1">
          <mxGeometry x="295" y="418" width="260" height="265" as="geometry" />
        </mxCell>
        <mxCell id="P1NVYwnlqDmwQnl8Z5pu-3" value="os-photons-diagnostics" style="rounded=0;whiteSpace=wrap;html=1;" parent="1" vertex="1">
          <mxGeometry x="1426" y="130" width="120" height="60" as="geometry" />
        </mxCell>
        <mxCell id="P1NVYwnlqDmwQnl8Z5pu-4" value="os-photons&lt;span style=&quot;color: rgba(0, 0, 0, 0); font-family: monospace; font-size: 0px; text-align: start; text-wrap-mode: nowrap;&quot;&gt;%3CmxGraphModel%3E%3Croot%3E%3CmxCell%20id%3D%220%22%2F%3E%3CmxCell%20id%3D%221%22%20parent%3D%220%22%2F%3E%3CmxCell%20id%3D%222%22%20value%3D%22os-photons-diagnostics%22%20style%3D%22rounded%3D0%3BwhiteSpace%3Dwrap%3Bhtml%3D1%3B%22%20vertex%3D%221%22%20parent%3D%221%22%3E%3CmxGeometry%20x%3D%221020%22%20y%3D%22-10%22%20width%3D%22120%22%20height%3D%2260%22%20as%3D%22geometry%22%2F%3E%3C%2FmxCell%3E%3C%2Froot%3E%3C%2FmxGraphModel%3E&lt;/span&gt;&lt;span style=&quot;color: rgba(0, 0, 0, 0); font-family: monospace; font-size: 0px; text-align: start; text-wrap-mode: nowrap;&quot;&gt;%3CmxGraphModel%3E%3Croot%3E%3CmxCell%20id%3D%220%22%2F%3E%3CmxCell%20id%3D%221%22%20parent%3D%220%22%2F%3E%3CmxCell%20id%3D%222%22%20value%3D%22os-photons-diagnostics%22%20style%3D%22rounded%3D0%3BwhiteSpace%3Dwrap%3Bhtml%3D1%3B%22%20vertex%3D%221%22%20parent%3D%221%22%3E%3CmxGeometry%20x%3D%221020%22%20y%3D%22-10%22%20width%3D%22120%22%20height%3D%2260%22%20as%3D%22geometry%22%2F%3E%3C%2FmxCell%3E%3C%2Froot%3E%3C%2FmxGraphModel%3E&lt;/span&gt;" style="rounded=0;whiteSpace=wrap;html=1;" parent="1" vertex="1">
          <mxGeometry x="986" y="130" width="120" height="60" as="geometry" />
        </mxCell>
        <mxCell id="P1NVYwnlqDmwQnl8Z5pu-5" value="os-qed-coulomb&lt;span style=&quot;color: rgba(0, 0, 0, 0); font-family: monospace; font-size: 0px; text-align: start; text-wrap-mode: nowrap;&quot;&gt;%3CmxGraphModel%3E%3Croot%3E%3CmxCell%20id%3D%220%22%2F%3E%3CmxCell%20id%3D%221%22%20parent%3D%220%22%2F%3E%3CmxCell%20id%3D%222%22%20value%3D%22os-photons-diagnostics%22%20style%3D%22rounded%3D0%3BwhiteSpace%3Dwrap%3Bhtml%3D1%3B%22%20vertex%3D%221%22%20parent%3D%221%22%3E%3CmxGeometry%20x%3D%221020%22%20y%3D%22-10%22%20width%3D%22120%22%20height%3D%2260%22%20as%3D%22geometry%22%2F%3E%3C%2FmxCell%3E%3C%2Froot%3E%3C%2FmxGraphModel%3E&lt;/span&gt;&lt;span style=&quot;color: rgba(0, 0, 0, 0); font-family: monospace; font-size: 0px; text-align: start; text-wrap-mode: nowrap;&quot;&gt;%3CmxGraphModel%3E%3Croot%3E%3CmxCell%20id%3D%220%22%2F%3E%3CmxCell%20id%3D%221%22%20parent%3D%220%22%2F%3E%3CmxCell%20id%3D%222%22%20value%3D%22os-photons-diagnostics%22%20style%3D%22rounded%3D0%3BwhiteSpace%3Dwrap%3Bhtml%3D1%3B%22%20vertex%3D%221%22%20parent%3D%221%22%3E%3CmxGeometry%20x%3D%221020%22%20y%3D%22-10%22%20width%3D%22120%22%20height%3D%2260%22%20as%3D%22geometry%22%2F%3E%3C%2FmxCell%3E%3C%2Froot%3E%3C%2FmxGraphModel%3E&lt;/span&gt;" style="rounded=0;whiteSpace=wrap;html=1;" parent="1" vertex="1">
          <mxGeometry x="905" y="-100" width="120" height="60" as="geometry" />
        </mxCell>
        <mxCell id="P1NVYwnlqDmwQnl8Z5pu-8" value="" style="endArrow=classic;html=1;rounded=0;exitX=1;exitY=0.5;exitDx=0;exitDy=0;entryX=0;entryY=0.5;entryDx=0;entryDy=0;" parent="1" source="RWk9WnBIg7F_4jbduYXB-1" target="RWk9WnBIg7F_4jbduYXB-4" edge="1">
          <mxGeometry width="50" height="50" relative="1" as="geometry">
            <mxPoint x="1485" y="-340" as="sourcePoint" />
            <mxPoint x="1535" y="-390" as="targetPoint" />
          </mxGeometry>
        </mxCell>
        <mxCell id="P1NVYwnlqDmwQnl8Z5pu-9" value="" style="endArrow=classic;html=1;rounded=0;exitX=1;exitY=0.5;exitDx=0;exitDy=0;entryX=0;entryY=0.5;entryDx=0;entryDy=0;" parent="1" source="RWk9WnBIg7F_4jbduYXB-1" target="RWk9WnBIg7F_4jbduYXB-2" edge="1">
          <mxGeometry width="50" height="50" relative="1" as="geometry">
            <mxPoint x="1485" y="-340" as="sourcePoint" />
            <mxPoint x="1535" y="-390" as="targetPoint" />
          </mxGeometry>
        </mxCell>
        <mxCell id="P1NVYwnlqDmwQnl8Z5pu-10" value="" style="endArrow=classic;html=1;rounded=0;exitX=1;exitY=0.5;exitDx=0;exitDy=0;entryX=0;entryY=0.5;entryDx=0;entryDy=0;" parent="1" source="RWk9WnBIg7F_4jbduYXB-1" target="RWk9WnBIg7F_4jbduYXB-3" edge="1">
          <mxGeometry width="50" height="50" relative="1" as="geometry">
            <mxPoint x="1485" y="-340" as="sourcePoint" />
            <mxPoint x="1535" y="-390" as="targetPoint" />
          </mxGeometry>
        </mxCell>
        <mxCell id="P1NVYwnlqDmwQnl8Z5pu-13" value="Section 1:&amp;nbsp;&lt;div&gt;BH General Information&lt;/div&gt;&lt;div&gt;------&lt;/div&gt;&lt;div&gt;Subsequent sections:&amp;nbsp;&lt;/div&gt;&lt;div&gt;BH defining axes, tcs, and cdf (tables) as well as cdf, cs, probability, and spec subroutines.&amp;nbsp;&lt;/div&gt;" style="rounded=1;whiteSpace=wrap;html=1;" parent="1" vertex="1">
          <mxGeometry x="720" y="-130" width="175" height="125" as="geometry" />
        </mxCell>
        <mxCell id="P1NVYwnlqDmwQnl8Z5pu-26" value="m_primakoff" style="rounded=0;whiteSpace=wrap;html=1;fillColor=#007FFF;" parent="1" vertex="1">
          <mxGeometry x="2523" y="678" width="120" height="70" as="geometry" />
        </mxCell>
        <mxCell id="P1NVYwnlqDmwQnl8Z5pu-27" value="os-axions-define" style="rounded=0;whiteSpace=wrap;html=1;" parent="1" vertex="1">
          <mxGeometry x="2903" y="608" width="120" height="60" as="geometry" />
        </mxCell>
        <mxCell id="P1NVYwnlqDmwQnl8Z5pu-28" style="edgeStyle=orthogonalEdgeStyle;rounded=0;orthogonalLoop=1;jettySize=auto;html=1;exitX=0.5;exitY=1;exitDx=0;exitDy=0;" parent="1" source="P1NVYwnlqDmwQnl8Z5pu-30" edge="1">
          <mxGeometry relative="1" as="geometry">
            <mxPoint x="2783" y="1128" as="targetPoint" />
          </mxGeometry>
        </mxCell>
        <mxCell id="P1NVYwnlqDmwQnl8Z5pu-29" style="edgeStyle=orthogonalEdgeStyle;rounded=0;orthogonalLoop=1;jettySize=auto;html=1;exitX=0.5;exitY=1;exitDx=0;exitDy=0;entryX=0.5;entryY=0;entryDx=0;entryDy=0;" parent="1" source="P1NVYwnlqDmwQnl8Z5pu-30" target="P1NVYwnlqDmwQnl8Z5pu-35" edge="1">
          <mxGeometry relative="1" as="geometry" />
        </mxCell>
        <mxCell id="P1NVYwnlqDmwQnl8Z5pu-30" value="os-photons-define" style="rounded=0;whiteSpace=wrap;html=1;" parent="1" vertex="1">
          <mxGeometry x="2903" y="757.9999999999999" width="120" height="60" as="geometry" />
        </mxCell>
        <mxCell id="P1NVYwnlqDmwQnl8Z5pu-31" value="os-particles-qed" style="rounded=0;whiteSpace=wrap;html=1;" parent="1" vertex="1">
          <mxGeometry x="2903" y="458" width="120" height="60" as="geometry" />
        </mxCell>
        <mxCell id="P1NVYwnlqDmwQnl8Z5pu-33" value="Section 1:&lt;div&gt;&quot;procedurizing&quot;&amp;nbsp;init_primakoff&lt;/div&gt;&lt;div&gt;------&lt;/div&gt;&lt;div&gt;Section 2:&amp;nbsp;&lt;/div&gt;&lt;div&gt;Calling init_primakoff&amp;nbsp;to&amp;nbsp;Read Primakoff bloc in the input deck&lt;/div&gt;&lt;div&gt;------&lt;/div&gt;&lt;div&gt;Section 3:&amp;nbsp;&lt;/div&gt;&lt;div&gt;Subroutine&amp;nbsp;&lt;span style=&quot;background-color: initial;&quot;&gt;init_primakoff&lt;/span&gt;&lt;/div&gt;" style="rounded=1;whiteSpace=wrap;html=1;" parent="1" vertex="1">
          <mxGeometry x="3033" y="418" width="270" height="140" as="geometry" />
        </mxCell>
        <mxCell id="P1NVYwnlqDmwQnl8Z5pu-34" value="Repetition of the same lines in os-photons-define" style="rounded=1;whiteSpace=wrap;html=1;" parent="1" vertex="1">
          <mxGeometry x="3033" y="598" width="175" height="80" as="geometry" />
        </mxCell>
        <mxCell id="P1NVYwnlqDmwQnl8Z5pu-35" value="os-photons-diagnostics" style="rounded=0;whiteSpace=wrap;html=1;" parent="1" vertex="1">
          <mxGeometry x="3093" y="1128" width="120" height="60" as="geometry" />
        </mxCell>
        <mxCell id="P1NVYwnlqDmwQnl8Z5pu-36" value="os-photons&lt;span style=&quot;color: rgba(0, 0, 0, 0); font-family: monospace; font-size: 0px; text-align: start; text-wrap-mode: nowrap;&quot;&gt;%3CmxGraphModel%3E%3Croot%3E%3CmxCell%20id%3D%220%22%2F%3E%3CmxCell%20id%3D%221%22%20parent%3D%220%22%2F%3E%3CmxCell%20id%3D%222%22%20value%3D%22os-photons-diagnostics%22%20style%3D%22rounded%3D0%3BwhiteSpace%3Dwrap%3Bhtml%3D1%3B%22%20vertex%3D%221%22%20parent%3D%221%22%3E%3CmxGeometry%20x%3D%221020%22%20y%3D%22-10%22%20width%3D%22120%22%20height%3D%2260%22%20as%3D%22geometry%22%2F%3E%3C%2FmxCell%3E%3C%2Froot%3E%3C%2FmxGraphModel%3E&lt;/span&gt;&lt;span style=&quot;color: rgba(0, 0, 0, 0); font-family: monospace; font-size: 0px; text-align: start; text-wrap-mode: nowrap;&quot;&gt;%3CmxGraphModel%3E%3Croot%3E%3CmxCell%20id%3D%220%22%2F%3E%3CmxCell%20id%3D%221%22%20parent%3D%220%22%2F%3E%3CmxCell%20id%3D%222%22%20value%3D%22os-photons-diagnostics%22%20style%3D%22rounded%3D0%3BwhiteSpace%3Dwrap%3Bhtml%3D1%3B%22%20vertex%3D%221%22%20parent%3D%221%22%3E%3CmxGeometry%20x%3D%221020%22%20y%3D%22-10%22%20width%3D%22120%22%20height%3D%2260%22%20as%3D%22geometry%22%2F%3E%3C%2FmxCell%3E%3C%2Froot%3E%3C%2FmxGraphModel%3E&lt;/span&gt;" style="rounded=0;whiteSpace=wrap;html=1;" parent="1" vertex="1">
          <mxGeometry x="2723" y="1128" width="120" height="60" as="geometry" />
        </mxCell>
        <mxCell id="P1NVYwnlqDmwQnl8Z5pu-37" style="edgeStyle=orthogonalEdgeStyle;rounded=0;orthogonalLoop=1;jettySize=auto;html=1;exitX=0.5;exitY=1;exitDx=0;exitDy=0;entryX=0.5;entryY=0;entryDx=0;entryDy=0;" parent="1" source="P1NVYwnlqDmwQnl8Z5pu-38" target="P1NVYwnlqDmwQnl8Z5pu-36" edge="1">
          <mxGeometry relative="1" as="geometry">
            <Array as="points">
              <mxPoint x="2583" y="1098" />
              <mxPoint x="2783" y="1098" />
            </Array>
          </mxGeometry>
        </mxCell>
        <mxCell id="P1NVYwnlqDmwQnl8Z5pu-38" value="os-qed-coulomb&lt;span style=&quot;color: rgba(0, 0, 0, 0); font-family: monospace; font-size: 0px; text-align: start; text-wrap-mode: nowrap;&quot;&gt;%3CmxGraphModel%3E%3Croot%3E%3CmxCell%20id%3D%220%22%2F%3E%3CmxCell%20id%3D%221%22%20parent%3D%220%22%2F%3E%3CmxCell%20id%3D%222%22%20value%3D%22os-photons-diagnostics%22%20style%3D%22rounded%3D0%3BwhiteSpace%3Dwrap%3Bhtml%3D1%3B%22%20vertex%3D%221%22%20parent%3D%221%22%3E%3CmxGeometry%20x%3D%221020%22%20y%3D%22-10%22%20width%3D%22120%22%20height%3D%2260%22%20as%3D%22geometry%22%2F%3E%3C%2FmxCell%3E%3C%2Froot%3E%3C%2FmxGraphModel%3E&lt;/span&gt;&lt;span style=&quot;color: rgba(0, 0, 0, 0); font-family: monospace; font-size: 0px; text-align: start; text-wrap-mode: nowrap;&quot;&gt;%3CmxGraphModel%3E%3Croot%3E%3CmxCell%20id%3D%220%22%2F%3E%3CmxCell%20id%3D%221%22%20parent%3D%220%22%2F%3E%3CmxCell%20id%3D%222%22%20value%3D%22os-photons-diagnostics%22%20style%3D%22rounded%3D0%3BwhiteSpace%3Dwrap%3Bhtml%3D1%3B%22%20vertex%3D%221%22%20parent%3D%221%22%3E%3CmxGeometry%20x%3D%221020%22%20y%3D%22-10%22%20width%3D%22120%22%20height%3D%2260%22%20as%3D%22geometry%22%2F%3E%3C%2FmxCell%3E%3C%2Froot%3E%3C%2FmxGraphModel%3E&lt;/span&gt;" style="rounded=0;whiteSpace=wrap;html=1;" parent="1" vertex="1">
          <mxGeometry x="2523" y="947.9999999999999" width="120" height="60" as="geometry" />
        </mxCell>
        <mxCell id="P1NVYwnlqDmwQnl8Z5pu-39" value="" style="endArrow=classic;html=1;rounded=0;exitX=1;exitY=0.5;exitDx=0;exitDy=0;entryX=0;entryY=0.5;entryDx=0;entryDy=0;" parent="1" source="P1NVYwnlqDmwQnl8Z5pu-26" target="P1NVYwnlqDmwQnl8Z5pu-31" edge="1">
          <mxGeometry width="50" height="50" relative="1" as="geometry">
            <mxPoint x="3103" y="658" as="sourcePoint" />
            <mxPoint x="3153" y="608" as="targetPoint" />
          </mxGeometry>
        </mxCell>
        <mxCell id="P1NVYwnlqDmwQnl8Z5pu-40" value="" style="endArrow=classic;html=1;rounded=0;exitX=1;exitY=0.5;exitDx=0;exitDy=0;entryX=0;entryY=0.5;entryDx=0;entryDy=0;" parent="1" source="P1NVYwnlqDmwQnl8Z5pu-26" target="P1NVYwnlqDmwQnl8Z5pu-27" edge="1">
          <mxGeometry width="50" height="50" relative="1" as="geometry">
            <mxPoint x="3103" y="658" as="sourcePoint" />
            <mxPoint x="3153" y="608" as="targetPoint" />
          </mxGeometry>
        </mxCell>
        <mxCell id="P1NVYwnlqDmwQnl8Z5pu-41" value="" style="endArrow=classic;html=1;rounded=0;exitX=1;exitY=0.5;exitDx=0;exitDy=0;entryX=0;entryY=0.5;entryDx=0;entryDy=0;" parent="1" source="P1NVYwnlqDmwQnl8Z5pu-26" target="P1NVYwnlqDmwQnl8Z5pu-30" edge="1">
          <mxGeometry width="50" height="50" relative="1" as="geometry">
            <mxPoint x="3103" y="658" as="sourcePoint" />
            <mxPoint x="3153" y="608" as="targetPoint" />
          </mxGeometry>
        </mxCell>
        <mxCell id="P1NVYwnlqDmwQnl8Z5pu-42" value="Section 1:&amp;nbsp;&lt;div&gt;Primakoff General Information&lt;/div&gt;&lt;div&gt;------&lt;/div&gt;&lt;div&gt;Subsequent sections:&amp;nbsp;&lt;/div&gt;&lt;div&gt;Primakoff defining axes, tcs, and cdf as well as cdf, cs, probability, and spec subroutines.&amp;nbsp;&lt;/div&gt;" style="rounded=1;whiteSpace=wrap;html=1;" parent="1" vertex="1">
          <mxGeometry x="2337" y="915.4999999999999" width="175" height="125" as="geometry" />
        </mxCell>
        <mxCell id="P1NVYwnlqDmwQnl8Z5pu-43" value="Why not added in&lt;div&gt;os-photons-diagnostics?&lt;/div&gt;" style="text;html=1;align=center;verticalAlign=middle;resizable=0;points=[];autosize=1;strokeColor=none;fillColor=none;" parent="1" vertex="1">
          <mxGeometry x="3152" y="1040.5" width="150" height="40" as="geometry" />
        </mxCell>
        <mxCell id="P1NVYwnlqDmwQnl8Z5pu-45" value="Section 1:&amp;nbsp;&lt;div&gt;Publicizing &quot;create_pairs_betheheitler&quot;&amp;nbsp;&lt;/div&gt;&lt;div&gt;------&lt;/div&gt;&lt;div&gt;&lt;span style=&quot;background-color: initial;&quot;&gt;Section 2:&lt;/span&gt;&lt;/div&gt;&lt;div&gt;Subroutine &quot;&lt;span style=&quot;background-color: initial;&quot;&gt;create_pairs_betheheitler&quot;&amp;nbsp;&lt;/span&gt;&lt;/div&gt;&lt;div&gt;&lt;span style=&quot;background-color: initial;&quot;&gt;------&lt;/span&gt;&lt;/div&gt;&lt;div&gt;&lt;span style=&quot;background-color: initial;&quot;&gt;Section 3:&lt;/span&gt;&lt;/div&gt;&lt;div&gt;Calling &quot;&lt;span style=&quot;background-color: initial;&quot;&gt;create_pairs_betheheitler&quot; in &quot;&lt;b&gt;advance_photons&lt;/b&gt;&quot;&lt;/span&gt;&lt;/div&gt;" style="rounded=1;whiteSpace=wrap;html=1;" parent="1" vertex="1">
          <mxGeometry x="1115" y="90" width="175" height="195" as="geometry" />
        </mxCell>
        <mxCell id="P1NVYwnlqDmwQnl8Z5pu-46" value="Section 1:&amp;nbsp;&lt;div&gt;Publicizing &quot;create_axions_primakoff&quot;&amp;nbsp;&lt;/div&gt;&lt;div&gt;------&lt;/div&gt;&lt;div&gt;&lt;span style=&quot;background-color: initial;&quot;&gt;Section 2:&lt;/span&gt;&lt;/div&gt;&lt;div&gt;Subroutine &quot;create_axions_primakoff&lt;span style=&quot;background-color: initial;&quot;&gt;&quot;&amp;nbsp;&lt;/span&gt;&lt;/div&gt;&lt;div&gt;&lt;span style=&quot;background-color: initial;&quot;&gt;------&lt;/span&gt;&lt;/div&gt;&lt;div&gt;&lt;span style=&quot;background-color: initial;&quot;&gt;Section 3:&lt;/span&gt;&lt;/div&gt;&lt;div&gt;Calling &quot;create_axions_primakoff&lt;span style=&quot;background-color: initial;&quot;&gt;&quot; in &quot;&lt;b&gt;advance_photons&lt;/b&gt;&quot;&lt;/span&gt;&lt;/div&gt;" style="rounded=1;whiteSpace=wrap;html=1;" parent="1" vertex="1">
          <mxGeometry x="2858" y="1099.25" width="175" height="195" as="geometry" />
        </mxCell>
        <mxCell id="P1NVYwnlqDmwQnl8Z5pu-47" value="Section 1:&amp;nbsp;&lt;div&gt;Interpolation of Ion density of bethe-heitler&amp;nbsp;&amp;nbsp;&lt;/div&gt;&lt;div&gt;------&lt;/div&gt;&lt;div&gt;&lt;span style=&quot;background-color: initial;&quot;&gt;Section 2:&lt;/span&gt;&lt;/div&gt;&lt;div&gt;diagnosing number of bh pairs, their energy, and weighs.&lt;/div&gt;" style="rounded=1;whiteSpace=wrap;html=1;" parent="1" vertex="1">
          <mxGeometry x="1555" y="101.25" width="175" height="117.5" as="geometry" />
        </mxCell>
        <mxCell id="P1NVYwnlqDmwQnl8Z5pu-48" value="" style="endArrow=classic;html=1;rounded=0;exitX=0.5;exitY=1;exitDx=0;exitDy=0;entryX=0.5;entryY=0;entryDx=0;entryDy=0;" parent="1" source="P1NVYwnlqDmwQnl8Z5pu-5" target="P1NVYwnlqDmwQnl8Z5pu-4" edge="1">
          <mxGeometry width="50" height="50" relative="1" as="geometry">
            <mxPoint x="1255" y="30" as="sourcePoint" />
            <mxPoint x="1305" y="-20" as="targetPoint" />
          </mxGeometry>
        </mxCell>
        <mxCell id="P1NVYwnlqDmwQnl8Z5pu-49" value="" style="endArrow=classic;html=1;rounded=0;exitX=0.5;exitY=1;exitDx=0;exitDy=0;entryX=0.5;entryY=0;entryDx=0;entryDy=0;" parent="1" source="RWk9WnBIg7F_4jbduYXB-3" target="P1NVYwnlqDmwQnl8Z5pu-4" edge="1">
          <mxGeometry width="50" height="50" relative="1" as="geometry">
            <mxPoint x="1255" y="30" as="sourcePoint" />
            <mxPoint x="1305" y="-20" as="targetPoint" />
          </mxGeometry>
        </mxCell>
        <mxCell id="P1NVYwnlqDmwQnl8Z5pu-50" value="" style="endArrow=classic;html=1;rounded=0;exitX=0.5;exitY=1;exitDx=0;exitDy=0;entryX=0.428;entryY=-0.061;entryDx=0;entryDy=0;entryPerimeter=0;" parent="1" source="RWk9WnBIg7F_4jbduYXB-3" target="P1NVYwnlqDmwQnl8Z5pu-3" edge="1">
          <mxGeometry width="50" height="50" relative="1" as="geometry">
            <mxPoint x="1255" y="30" as="sourcePoint" />
            <mxPoint x="1305" y="-20" as="targetPoint" />
          </mxGeometry>
        </mxCell>
        <mxCell id="P1NVYwnlqDmwQnl8Z5pu-52" value="m_primakoff" style="rounded=0;whiteSpace=wrap;html=1;fillColor=#007FFF;" parent="1" vertex="1">
          <mxGeometry x="905" y="700" width="120" height="70" as="geometry" />
        </mxCell>
        <mxCell id="P1NVYwnlqDmwQnl8Z5pu-53" value="os-axions-define" style="rounded=0;whiteSpace=wrap;html=1;" parent="1" vertex="1">
          <mxGeometry x="1416" y="630" width="120" height="60" as="geometry" />
        </mxCell>
        <mxCell id="P1NVYwnlqDmwQnl8Z5pu-54" value="os-photons-define" style="rounded=0;whiteSpace=wrap;html=1;" parent="1" vertex="1">
          <mxGeometry x="1416" y="780" width="120" height="60" as="geometry" />
        </mxCell>
        <mxCell id="P1NVYwnlqDmwQnl8Z5pu-55" value="os-particles-qed" style="rounded=0;whiteSpace=wrap;html=1;" parent="1" vertex="1">
          <mxGeometry x="1416" y="480" width="120" height="60" as="geometry" />
        </mxCell>
        <mxCell id="P1NVYwnlqDmwQnl8Z5pu-56" value="&lt;div&gt;&lt;div&gt;use m_primakof&amp;nbsp;&lt;/div&gt;&lt;div&gt;+&lt;/div&gt;&lt;/div&gt;&lt;div&gt;Section 1:&lt;/div&gt;&lt;div&gt;In &quot;t_photons&quot;, setting (num,energy,weigh)_axions,&amp;nbsp;&lt;br&gt;&lt;/div&gt;&lt;div&gt;-------&lt;/div&gt;Section 2:&lt;div&gt;Initializing Primakoff axion/photon Creation Info&lt;/div&gt;&lt;div&gt;-------&lt;/div&gt;&lt;div&gt;Section 3:&amp;nbsp;&lt;/div&gt;&lt;div&gt;Initializing&amp;nbsp;&lt;span style=&quot;background-color: initial;&quot;&gt;(num,energy,weigh)_axions&lt;/span&gt;&lt;/div&gt;&lt;div&gt;-------&lt;/div&gt;&lt;div&gt;Section 4:&amp;nbsp;&lt;/div&gt;&lt;div&gt;setting up vdf with ion density for Primakoff&lt;/div&gt;&lt;div&gt;------&lt;/div&gt;&lt;div&gt;Section 5:&lt;/div&gt;&lt;div&gt;Function: get_energy_axions&amp;nbsp;&lt;/div&gt;&lt;div&gt;-------&lt;/div&gt;&lt;div&gt;Section 6:&lt;/div&gt;&lt;div&gt;Reading/Writing checkpoint files&lt;/div&gt;" style="rounded=1;whiteSpace=wrap;html=1;" parent="1" vertex="1">
          <mxGeometry x="1547" y="710" width="270" height="300" as="geometry" />
        </mxCell>
        <mxCell id="P1NVYwnlqDmwQnl8Z5pu-57" value="&lt;div&gt;use m_primakof&amp;nbsp;&lt;/div&gt;&lt;div&gt;+&lt;/div&gt;Section 1:&lt;div&gt;&quot;procedurizing&quot;&amp;nbsp;init_primakoff&lt;/div&gt;&lt;div&gt;------&lt;/div&gt;&lt;div&gt;Section 2:&amp;nbsp;&lt;/div&gt;&lt;div&gt;Calling init_primakoff&amp;nbsp;to&amp;nbsp;Read Primakoff bloc in the input deck&lt;/div&gt;&lt;div&gt;------&lt;/div&gt;&lt;div&gt;Section 3:&amp;nbsp;&lt;/div&gt;&lt;div&gt;Subroutine&amp;nbsp;&lt;span style=&quot;background-color: initial;&quot;&gt;init_primakoff&lt;/span&gt;&lt;/div&gt;" style="rounded=1;whiteSpace=wrap;html=1;" parent="1" vertex="1">
          <mxGeometry x="1546" y="410" width="270" height="170" as="geometry" />
        </mxCell>
        <mxCell id="P1NVYwnlqDmwQnl8Z5pu-58" value="Repetition of the same lines in os-photons-define" style="rounded=1;whiteSpace=wrap;html=1;" parent="1" vertex="1">
          <mxGeometry x="1546" y="620" width="175" height="80" as="geometry" />
        </mxCell>
        <mxCell id="P1NVYwnlqDmwQnl8Z5pu-59" value="os-photons-diagnostics" style="rounded=0;whiteSpace=wrap;html=1;" parent="1" vertex="1">
          <mxGeometry x="1426" y="1150" width="120" height="60" as="geometry" />
        </mxCell>
        <mxCell id="P1NVYwnlqDmwQnl8Z5pu-60" value="os-photons&lt;span style=&quot;color: rgba(0, 0, 0, 0); font-family: monospace; font-size: 0px; text-align: start; text-wrap-mode: nowrap;&quot;&gt;%3CmxGraphModel%3E%3Croot%3E%3CmxCell%20id%3D%220%22%2F%3E%3CmxCell%20id%3D%221%22%20parent%3D%220%22%2F%3E%3CmxCell%20id%3D%222%22%20value%3D%22os-photons-diagnostics%22%20style%3D%22rounded%3D0%3BwhiteSpace%3Dwrap%3Bhtml%3D1%3B%22%20vertex%3D%221%22%20parent%3D%221%22%3E%3CmxGeometry%20x%3D%221020%22%20y%3D%22-10%22%20width%3D%22120%22%20height%3D%2260%22%20as%3D%22geometry%22%2F%3E%3C%2FmxCell%3E%3C%2Froot%3E%3C%2FmxGraphModel%3E&lt;/span&gt;&lt;span style=&quot;color: rgba(0, 0, 0, 0); font-family: monospace; font-size: 0px; text-align: start; text-wrap-mode: nowrap;&quot;&gt;%3CmxGraphModel%3E%3Croot%3E%3CmxCell%20id%3D%220%22%2F%3E%3CmxCell%20id%3D%221%22%20parent%3D%220%22%2F%3E%3CmxCell%20id%3D%222%22%20value%3D%22os-photons-diagnostics%22%20style%3D%22rounded%3D0%3BwhiteSpace%3Dwrap%3Bhtml%3D1%3B%22%20vertex%3D%221%22%20parent%3D%221%22%3E%3CmxGeometry%20x%3D%221020%22%20y%3D%22-10%22%20width%3D%22120%22%20height%3D%2260%22%20as%3D%22geometry%22%2F%3E%3C%2FmxCell%3E%3C%2Froot%3E%3C%2FmxGraphModel%3E&lt;/span&gt;" style="rounded=0;whiteSpace=wrap;html=1;" parent="1" vertex="1">
          <mxGeometry x="986" y="1150" width="120" height="60" as="geometry" />
        </mxCell>
        <mxCell id="P1NVYwnlqDmwQnl8Z5pu-61" value="os-qed-coulomb&lt;span style=&quot;color: rgba(0, 0, 0, 0); font-family: monospace; font-size: 0px; text-align: start; text-wrap-mode: nowrap;&quot;&gt;%3CmxGraphModel%3E%3Croot%3E%3CmxCell%20id%3D%220%22%2F%3E%3CmxCell%20id%3D%221%22%20parent%3D%220%22%2F%3E%3CmxCell%20id%3D%222%22%20value%3D%22os-photons-diagnostics%22%20style%3D%22rounded%3D0%3BwhiteSpace%3Dwrap%3Bhtml%3D1%3B%22%20vertex%3D%221%22%20parent%3D%221%22%3E%3CmxGeometry%20x%3D%221020%22%20y%3D%22-10%22%20width%3D%22120%22%20height%3D%2260%22%20as%3D%22geometry%22%2F%3E%3C%2FmxCell%3E%3C%2Froot%3E%3C%2FmxGraphModel%3E&lt;/span&gt;&lt;span style=&quot;color: rgba(0, 0, 0, 0); font-family: monospace; font-size: 0px; text-align: start; text-wrap-mode: nowrap;&quot;&gt;%3CmxGraphModel%3E%3Croot%3E%3CmxCell%20id%3D%220%22%2F%3E%3CmxCell%20id%3D%221%22%20parent%3D%220%22%2F%3E%3CmxCell%20id%3D%222%22%20value%3D%22os-photons-diagnostics%22%20style%3D%22rounded%3D0%3BwhiteSpace%3Dwrap%3Bhtml%3D1%3B%22%20vertex%3D%221%22%20parent%3D%221%22%3E%3CmxGeometry%20x%3D%221020%22%20y%3D%22-10%22%20width%3D%22120%22%20height%3D%2260%22%20as%3D%22geometry%22%2F%3E%3C%2FmxCell%3E%3C%2Froot%3E%3C%2FmxGraphModel%3E&lt;/span&gt;" style="rounded=0;whiteSpace=wrap;html=1;" parent="1" vertex="1">
          <mxGeometry x="905" y="920" width="120" height="60" as="geometry" />
        </mxCell>
        <mxCell id="P1NVYwnlqDmwQnl8Z5pu-62" value="" style="endArrow=classic;html=1;rounded=0;exitX=1;exitY=0.5;exitDx=0;exitDy=0;entryX=0;entryY=0.5;entryDx=0;entryDy=0;" parent="1" source="P1NVYwnlqDmwQnl8Z5pu-52" target="P1NVYwnlqDmwQnl8Z5pu-55" edge="1">
          <mxGeometry width="50" height="50" relative="1" as="geometry">
            <mxPoint x="1485" y="680" as="sourcePoint" />
            <mxPoint x="1535" y="630" as="targetPoint" />
          </mxGeometry>
        </mxCell>
        <mxCell id="P1NVYwnlqDmwQnl8Z5pu-63" value="" style="endArrow=classic;html=1;rounded=0;exitX=1;exitY=0.5;exitDx=0;exitDy=0;entryX=0;entryY=0.5;entryDx=0;entryDy=0;" parent="1" source="P1NVYwnlqDmwQnl8Z5pu-52" target="P1NVYwnlqDmwQnl8Z5pu-53" edge="1">
          <mxGeometry width="50" height="50" relative="1" as="geometry">
            <mxPoint x="1485" y="680" as="sourcePoint" />
            <mxPoint x="1535" y="630" as="targetPoint" />
          </mxGeometry>
        </mxCell>
        <mxCell id="P1NVYwnlqDmwQnl8Z5pu-64" value="" style="endArrow=classic;html=1;rounded=0;exitX=1;exitY=0.5;exitDx=0;exitDy=0;entryX=0;entryY=0.5;entryDx=0;entryDy=0;" parent="1" source="P1NVYwnlqDmwQnl8Z5pu-52" target="P1NVYwnlqDmwQnl8Z5pu-54" edge="1">
          <mxGeometry width="50" height="50" relative="1" as="geometry">
            <mxPoint x="1485" y="680" as="sourcePoint" />
            <mxPoint x="1535" y="630" as="targetPoint" />
          </mxGeometry>
        </mxCell>
        <mxCell id="P1NVYwnlqDmwQnl8Z5pu-65" value="Section 1:&amp;nbsp;&lt;div&gt;Primakoff General Information&lt;/div&gt;&lt;div&gt;------&lt;/div&gt;&lt;div&gt;Subsequent sections:&amp;nbsp;&lt;/div&gt;&lt;div&gt;Primakoff defining axes, tcs, and cdf as well as cdf, cs, probability, and spec subroutines.&amp;nbsp;&lt;/div&gt;" style="rounded=1;whiteSpace=wrap;html=1;" parent="1" vertex="1">
          <mxGeometry x="720" y="890" width="175" height="125" as="geometry" />
        </mxCell>
        <mxCell id="P1NVYwnlqDmwQnl8Z5pu-66" value="Section 1:&amp;nbsp;&lt;div&gt;Publicizing &quot;create_axions_primakoff&quot;&amp;nbsp;&lt;/div&gt;&lt;div&gt;------&lt;/div&gt;&lt;div&gt;&lt;span style=&quot;background-color: initial;&quot;&gt;Section 2:&lt;/span&gt;&lt;/div&gt;&lt;div&gt;Subroutine &quot;create_axions_primakoff&lt;span style=&quot;background-color: initial;&quot;&gt;&quot;&amp;nbsp;&lt;/span&gt;&lt;/div&gt;&lt;div&gt;&lt;span style=&quot;background-color: initial;&quot;&gt;------&lt;/span&gt;&lt;/div&gt;&lt;div&gt;&lt;span style=&quot;background-color: initial;&quot;&gt;Section 3:&lt;/span&gt;&lt;/div&gt;&lt;div&gt;Calling &quot;create_axions_primakoff&lt;span style=&quot;background-color: initial;&quot;&gt;&quot; in &quot;&lt;b&gt;advance_photons&lt;/b&gt;&quot;&lt;/span&gt;&lt;/div&gt;" style="rounded=1;whiteSpace=wrap;html=1;" parent="1" vertex="1">
          <mxGeometry x="1115" y="1110" width="175" height="195" as="geometry" />
        </mxCell>
        <mxCell id="P1NVYwnlqDmwQnl8Z5pu-67" value="Section 1:&amp;nbsp;&lt;div&gt;Interpolation of Ion density of primakoff&amp;nbsp;&amp;nbsp;&lt;/div&gt;&lt;div&gt;------&lt;/div&gt;&lt;div&gt;&lt;span style=&quot;background-color: initial;&quot;&gt;Section 2:&lt;/span&gt;&lt;/div&gt;&lt;div&gt;diagnosing number of axions, their energy, and weighs.&lt;/div&gt;" style="rounded=1;whiteSpace=wrap;html=1;" parent="1" vertex="1">
          <mxGeometry x="1555" y="1121.25" width="175" height="117.5" as="geometry" />
        </mxCell>
        <mxCell id="P1NVYwnlqDmwQnl8Z5pu-68" value="" style="endArrow=classic;html=1;rounded=0;exitX=0.5;exitY=1;exitDx=0;exitDy=0;entryX=0.5;entryY=0;entryDx=0;entryDy=0;" parent="1" source="P1NVYwnlqDmwQnl8Z5pu-61" target="P1NVYwnlqDmwQnl8Z5pu-60" edge="1">
          <mxGeometry width="50" height="50" relative="1" as="geometry">
            <mxPoint x="1255" y="1050" as="sourcePoint" />
            <mxPoint x="1305" y="1000" as="targetPoint" />
          </mxGeometry>
        </mxCell>
        <mxCell id="P1NVYwnlqDmwQnl8Z5pu-69" value="" style="endArrow=classic;html=1;rounded=0;exitX=0.5;exitY=1;exitDx=0;exitDy=0;entryX=0.5;entryY=0;entryDx=0;entryDy=0;" parent="1" source="P1NVYwnlqDmwQnl8Z5pu-54" target="P1NVYwnlqDmwQnl8Z5pu-60" edge="1">
          <mxGeometry width="50" height="50" relative="1" as="geometry">
            <mxPoint x="1255" y="1050" as="sourcePoint" />
            <mxPoint x="1305" y="1000" as="targetPoint" />
          </mxGeometry>
        </mxCell>
        <mxCell id="P1NVYwnlqDmwQnl8Z5pu-70" value="" style="endArrow=classic;html=1;rounded=0;exitX=0.5;exitY=1;exitDx=0;exitDy=0;entryX=0.428;entryY=-0.061;entryDx=0;entryDy=0;entryPerimeter=0;" parent="1" source="P1NVYwnlqDmwQnl8Z5pu-54" target="P1NVYwnlqDmwQnl8Z5pu-59" edge="1">
          <mxGeometry width="50" height="50" relative="1" as="geometry">
            <mxPoint x="1255" y="1050" as="sourcePoint" />
            <mxPoint x="1305" y="1000" as="targetPoint" />
          </mxGeometry>
        </mxCell>
        <mxCell id="P1NVYwnlqDmwQnl8Z5pu-71" value="&lt;div&gt;Section 1:&lt;/div&gt;&lt;div&gt;In &quot;t_photons&quot;, setting (num,energy,weigh)_axions,&amp;nbsp;&lt;br&gt;&lt;/div&gt;&lt;div&gt;-------&lt;/div&gt;Section 2:&lt;div&gt;Initializing Primakoff axion/photon Creation Info&lt;/div&gt;&lt;div&gt;-------&lt;/div&gt;&lt;div&gt;Section 3:&amp;nbsp;&lt;/div&gt;&lt;div&gt;Initializing&amp;nbsp;&lt;span style=&quot;background-color: initial;&quot;&gt;(num,energy,weigh)_axions&lt;/span&gt;&lt;/div&gt;&lt;div&gt;-------&lt;/div&gt;&lt;div&gt;Section 4:&amp;nbsp;&lt;/div&gt;&lt;div&gt;setting up vdf with ion density for Primakoff&lt;/div&gt;&lt;div&gt;------&lt;/div&gt;&lt;div&gt;Section 5:&lt;/div&gt;&lt;div&gt;Function: get_energy_axions&amp;nbsp;&lt;/div&gt;&lt;div&gt;-------&lt;/div&gt;&lt;div&gt;Section 6:&lt;/div&gt;&lt;div&gt;Reading/Writing checkpoint files&lt;/div&gt;" style="rounded=1;whiteSpace=wrap;html=1;" parent="1" vertex="1">
          <mxGeometry x="3033" y="688" width="282" height="280" as="geometry" />
        </mxCell>
        <mxCell id="P1NVYwnlqDmwQnl8Z5pu-72" value="Section 1:&amp;nbsp;&lt;div&gt;Interpolation of Ion density of primakoff&amp;nbsp;&amp;nbsp;&lt;/div&gt;&lt;div&gt;------&lt;/div&gt;&lt;div&gt;&lt;span style=&quot;background-color: initial;&quot;&gt;Section 2:&lt;/span&gt;&lt;/div&gt;&lt;div&gt;diagnosing number of axions, their energy, and weighs.&lt;/div&gt;" style="rounded=1;whiteSpace=wrap;html=1;" parent="1" vertex="1">
          <mxGeometry x="3225" y="1099.25" width="175" height="117.5" as="geometry" />
        </mxCell>
        <mxCell id="P1NVYwnlqDmwQnl8Z5pu-75" value="" style="sketch=0;html=1;aspect=fixed;strokeColor=none;shadow=0;align=center;fillColor=#2D9C5E;verticalAlign=top;labelPosition=center;verticalLabelPosition=bottom;shape=mxgraph.gcp2.check" parent="1" vertex="1">
          <mxGeometry x="950" y="676" width="30" height="24" as="geometry" />
        </mxCell>
        <mxCell id="P1NVYwnlqDmwQnl8Z5pu-79" value="" style="sketch=0;html=1;aspect=fixed;strokeColor=none;shadow=0;align=center;fillColor=#2D9C5E;verticalAlign=top;labelPosition=center;verticalLabelPosition=bottom;shape=mxgraph.gcp2.check" parent="1" vertex="1">
          <mxGeometry x="1710" y="434" width="30" height="24" as="geometry" />
        </mxCell>
        <mxCell id="P1NVYwnlqDmwQnl8Z5pu-80" value="" style="sketch=0;html=1;aspect=fixed;strokeColor=none;shadow=0;align=center;fillColor=#2D9C5E;verticalAlign=top;labelPosition=center;verticalLabelPosition=bottom;shape=mxgraph.gcp2.check" parent="1" vertex="1">
          <mxGeometry x="1710" y="480" width="30" height="24" as="geometry" />
        </mxCell>
        <mxCell id="P1NVYwnlqDmwQnl8Z5pu-81" value="" style="sketch=0;html=1;aspect=fixed;strokeColor=none;shadow=0;align=center;fillColor=#2D9C5E;verticalAlign=top;labelPosition=center;verticalLabelPosition=bottom;shape=mxgraph.gcp2.check" parent="1" vertex="1">
          <mxGeometry x="840" y="890" width="30" height="24" as="geometry" />
        </mxCell>
        <mxCell id="P1NVYwnlqDmwQnl8Z5pu-82" value="" style="sketch=0;html=1;aspect=fixed;strokeColor=none;shadow=0;align=center;fillColor=#2D9C5E;verticalAlign=top;labelPosition=center;verticalLabelPosition=bottom;shape=mxgraph.gcp2.check" parent="1" vertex="1">
          <mxGeometry x="840" y="920" width="30" height="24" as="geometry" />
        </mxCell>
        <mxCell id="P1NVYwnlqDmwQnl8Z5pu-83" value="" style="sketch=0;html=1;aspect=fixed;strokeColor=none;shadow=0;align=center;fillColor=#2D9C5E;verticalAlign=top;labelPosition=center;verticalLabelPosition=bottom;shape=mxgraph.gcp2.check" parent="1" vertex="1">
          <mxGeometry x="950" y="896" width="30" height="24" as="geometry" />
        </mxCell>
        <mxCell id="P1NVYwnlqDmwQnl8Z5pu-84" value="" style="sketch=0;html=1;aspect=fixed;strokeColor=none;shadow=0;align=center;fillColor=#2D9C5E;verticalAlign=top;labelPosition=center;verticalLabelPosition=bottom;shape=mxgraph.gcp2.check" parent="1" vertex="1">
          <mxGeometry x="1710" y="534" width="30" height="24" as="geometry" />
        </mxCell>
        <mxCell id="P1NVYwnlqDmwQnl8Z5pu-85" value="" style="sketch=0;html=1;aspect=fixed;strokeColor=none;shadow=0;align=center;fillColor=#2D9C5E;verticalAlign=top;labelPosition=center;verticalLabelPosition=bottom;shape=mxgraph.gcp2.check" parent="1" vertex="1">
          <mxGeometry x="1710" y="740" width="22.5" height="18" as="geometry" />
        </mxCell>
        <mxCell id="P1NVYwnlqDmwQnl8Z5pu-88" value="" style="sketch=0;html=1;aspect=fixed;strokeColor=none;shadow=0;align=center;fillColor=#2D9C5E;verticalAlign=top;labelPosition=center;verticalLabelPosition=bottom;shape=mxgraph.gcp2.check" parent="1" vertex="1">
          <mxGeometry x="1708.75" y="840" width="25" height="20" as="geometry" />
        </mxCell>
        <mxCell id="P1NVYwnlqDmwQnl8Z5pu-93" value="" style="sketch=0;html=1;aspect=fixed;strokeColor=none;shadow=0;align=center;fillColor=#2D9C5E;verticalAlign=top;labelPosition=center;verticalLabelPosition=bottom;shape=mxgraph.gcp2.check" parent="1" vertex="1">
          <mxGeometry x="1710" y="798" width="25" height="20" as="geometry" />
        </mxCell>
        <mxCell id="P1NVYwnlqDmwQnl8Z5pu-94" value="" style="sketch=0;html=1;aspect=fixed;strokeColor=none;shadow=0;align=center;fillColor=#2D9C5E;verticalAlign=top;labelPosition=center;verticalLabelPosition=bottom;shape=mxgraph.gcp2.check" parent="1" vertex="1">
          <mxGeometry x="1705" y="881" width="25" height="20" as="geometry" />
        </mxCell>
        <mxCell id="P1NVYwnlqDmwQnl8Z5pu-95" value="" style="sketch=0;html=1;aspect=fixed;strokeColor=none;shadow=0;align=center;fillColor=#2D9C5E;verticalAlign=top;labelPosition=center;verticalLabelPosition=bottom;shape=mxgraph.gcp2.check" parent="1" vertex="1">
          <mxGeometry x="1708.75" y="928" width="25" height="20" as="geometry" />
        </mxCell>
        <mxCell id="P1NVYwnlqDmwQnl8Z5pu-96" value="" style="sketch=0;html=1;aspect=fixed;strokeColor=none;shadow=0;align=center;fillColor=#2D9C5E;verticalAlign=top;labelPosition=center;verticalLabelPosition=bottom;shape=mxgraph.gcp2.check" parent="1" vertex="1">
          <mxGeometry x="1710" y="968" width="25" height="20" as="geometry" />
        </mxCell>
        <mxCell id="P1NVYwnlqDmwQnl8Z5pu-97" value="" style="sketch=0;html=1;aspect=fixed;strokeColor=none;shadow=0;align=center;fillColor=#2D9C5E;verticalAlign=top;labelPosition=center;verticalLabelPosition=bottom;shape=mxgraph.gcp2.check" parent="1" vertex="1">
          <mxGeometry x="1463.5" y="760" width="25" height="20" as="geometry" />
        </mxCell>
        <mxCell id="P1NVYwnlqDmwQnl8Z5pu-98" value="" style="sketch=0;html=1;aspect=fixed;strokeColor=none;shadow=0;align=center;fillColor=#2D9C5E;verticalAlign=top;labelPosition=center;verticalLabelPosition=bottom;shape=mxgraph.gcp2.check" parent="1" vertex="1">
          <mxGeometry x="1461" y="456" width="30" height="24" as="geometry" />
        </mxCell>
        <mxCell id="P1NVYwnlqDmwQnl8Z5pu-99" value="" style="sketch=0;html=1;aspect=fixed;strokeColor=none;shadow=0;align=center;fillColor=#2D9C5E;verticalAlign=top;labelPosition=center;verticalLabelPosition=bottom;shape=mxgraph.gcp2.check" parent="1" vertex="1">
          <mxGeometry x="1669.5" y="1121.25" width="25" height="20" as="geometry" />
        </mxCell>
        <mxCell id="P1NVYwnlqDmwQnl8Z5pu-100" value="" style="sketch=0;html=1;aspect=fixed;strokeColor=none;shadow=0;align=center;fillColor=#2D9C5E;verticalAlign=top;labelPosition=center;verticalLabelPosition=bottom;shape=mxgraph.gcp2.check" parent="1" vertex="1">
          <mxGeometry x="1228" y="1114" width="25" height="20" as="geometry" />
        </mxCell>
        <mxCell id="P1NVYwnlqDmwQnl8Z5pu-101" value="" style="sketch=0;html=1;aspect=fixed;strokeColor=none;shadow=0;align=center;fillColor=#2D9C5E;verticalAlign=top;labelPosition=center;verticalLabelPosition=bottom;shape=mxgraph.gcp2.check" parent="1" vertex="1">
          <mxGeometry x="1669.5" y="1180" width="25" height="20" as="geometry" />
        </mxCell>
        <mxCell id="P1NVYwnlqDmwQnl8Z5pu-102" value="" style="sketch=0;html=1;aspect=fixed;strokeColor=none;shadow=0;align=center;fillColor=#2D9C5E;verticalAlign=top;labelPosition=center;verticalLabelPosition=bottom;shape=mxgraph.gcp2.check" parent="1" vertex="1">
          <mxGeometry x="1231" y="1174" width="25" height="20" as="geometry" />
        </mxCell>
        <mxCell id="P1NVYwnlqDmwQnl8Z5pu-103" value="" style="sketch=0;html=1;aspect=fixed;strokeColor=none;shadow=0;align=center;fillColor=#2D9C5E;verticalAlign=top;labelPosition=center;verticalLabelPosition=bottom;shape=mxgraph.gcp2.check" parent="1" vertex="1">
          <mxGeometry x="1231" y="1230" width="25" height="20" as="geometry" />
        </mxCell>
        <mxCell id="vVsUfGjXLqC1GAe2peMV-1" value="" style="sketch=0;html=1;aspect=fixed;strokeColor=none;shadow=0;align=center;fillColor=#2D9C5E;verticalAlign=top;labelPosition=center;verticalLabelPosition=bottom;shape=mxgraph.gcp2.check" parent="1" vertex="1">
          <mxGeometry x="1020" y="1120" width="37.5" height="30" as="geometry" />
        </mxCell>
        <mxCell id="xAQa2vmBrpAdzw5jYy5Q-3" value="" style="sketch=0;html=1;aspect=fixed;strokeColor=none;shadow=0;align=center;fillColor=#2D9C5E;verticalAlign=top;labelPosition=center;verticalLabelPosition=bottom;shape=mxgraph.gcp2.check" parent="1" vertex="1">
          <mxGeometry x="1480" y="1120" width="37.5" height="30" as="geometry" />
        </mxCell>
        <mxCell id="JFBT5RQmRZLoWsospSP8-1" value="m_acompton" style="rounded=0;whiteSpace=wrap;html=1;fillColor=#007FFF;" vertex="1" parent="1">
          <mxGeometry x="905" y="1854" width="120" height="70" as="geometry" />
        </mxCell>
        <mxCell id="JFBT5RQmRZLoWsospSP8-2" value="os-axions-define" style="rounded=0;whiteSpace=wrap;html=1;" vertex="1" parent="1">
          <mxGeometry x="1416" y="1784" width="120" height="60" as="geometry" />
        </mxCell>
        <mxCell id="JFBT5RQmRZLoWsospSP8-3" value="os-photons-define" style="rounded=0;whiteSpace=wrap;html=1;" vertex="1" parent="1">
          <mxGeometry x="1416" y="1934" width="120" height="60" as="geometry" />
        </mxCell>
        <mxCell id="JFBT5RQmRZLoWsospSP8-4" value="os-particles-qed" style="rounded=0;whiteSpace=wrap;html=1;" vertex="1" parent="1">
          <mxGeometry x="1416" y="1634" width="120" height="60" as="geometry" />
        </mxCell>
        <mxCell id="JFBT5RQmRZLoWsospSP8-5" value="&lt;div&gt;&lt;div&gt;use m_acompton&amp;nbsp;&lt;/div&gt;&lt;div&gt;+&lt;/div&gt;&lt;/div&gt;&lt;div&gt;Section 1:&lt;/div&gt;&lt;div&gt;In &quot;t_photons&quot;, setting (num,energy,weigh)_axions,&amp;nbsp;&lt;br&gt;&lt;/div&gt;&lt;div&gt;-------&lt;/div&gt;Section 2:&lt;div&gt;Initializing acompton&amp;nbsp;axion/photon Creation Info&lt;/div&gt;&lt;div&gt;-------&lt;/div&gt;&lt;div&gt;Section 3:&amp;nbsp;&lt;/div&gt;&lt;div&gt;Initializing&amp;nbsp;&lt;span style=&quot;background-color: initial;&quot;&gt;(num,energy,weigh)_axions&lt;/span&gt;&lt;/div&gt;&lt;div&gt;-------&lt;/div&gt;&lt;div&gt;Section 4:&amp;nbsp;&lt;/div&gt;&lt;div&gt;setting up vdf with ion density for&amp;nbsp;&lt;span style=&quot;background-color: transparent; color: light-dark(rgb(0, 0, 0), rgb(255, 255, 255));&quot;&gt;acompton&lt;/span&gt;&lt;/div&gt;&lt;div&gt;------&lt;/div&gt;&lt;div&gt;Section 5:&lt;/div&gt;&lt;div&gt;Function: get_energy_acompton&amp;nbsp;&lt;/div&gt;&lt;div&gt;-------&lt;/div&gt;&lt;div&gt;Section 6:&lt;/div&gt;&lt;div&gt;Reading/Writing checkpoint files&lt;/div&gt;" style="rounded=1;whiteSpace=wrap;html=1;" vertex="1" parent="1">
          <mxGeometry x="1547" y="1864" width="270" height="300" as="geometry" />
        </mxCell>
        <mxCell id="JFBT5RQmRZLoWsospSP8-6" value="&lt;div&gt;use m_acompton&amp;nbsp;&lt;/div&gt;&lt;div&gt;+&lt;/div&gt;Section 1:&lt;div&gt;&quot;procedurizing&quot;&amp;nbsp;init_&lt;span style=&quot;background-color: transparent; color: light-dark(rgb(0, 0, 0), rgb(255, 255, 255));&quot;&gt;acompton&lt;/span&gt;&lt;/div&gt;&lt;div&gt;------&lt;/div&gt;&lt;div&gt;Section 2:&amp;nbsp;&lt;/div&gt;&lt;div&gt;Calling init_acompton&amp;nbsp;to&amp;nbsp;Read acompton&amp;nbsp;bloc in the input deck&lt;/div&gt;&lt;div&gt;------&lt;/div&gt;&lt;div&gt;Section 3:&amp;nbsp;&lt;/div&gt;&lt;div&gt;Subroutine&amp;nbsp;&lt;span style=&quot;background-color: initial;&quot;&gt;init_&lt;/span&gt;&lt;span style=&quot;background-color: transparent; color: light-dark(rgb(0, 0, 0), rgb(255, 255, 255));&quot;&gt;acompton&lt;/span&gt;&lt;/div&gt;" style="rounded=1;whiteSpace=wrap;html=1;" vertex="1" parent="1">
          <mxGeometry x="1546" y="1564" width="270" height="170" as="geometry" />
        </mxCell>
        <mxCell id="JFBT5RQmRZLoWsospSP8-7" value="Repetition of the same lines in os-photons-define" style="rounded=1;whiteSpace=wrap;html=1;" vertex="1" parent="1">
          <mxGeometry x="1546" y="1774" width="175" height="80" as="geometry" />
        </mxCell>
        <mxCell id="JFBT5RQmRZLoWsospSP8-8" value="os-photons-diagnostics" style="rounded=0;whiteSpace=wrap;html=1;" vertex="1" parent="1">
          <mxGeometry x="1426" y="2304" width="120" height="60" as="geometry" />
        </mxCell>
        <mxCell id="JFBT5RQmRZLoWsospSP8-9" value="os-photons&lt;span style=&quot;color: rgba(0, 0, 0, 0); font-family: monospace; font-size: 0px; text-align: start; text-wrap-mode: nowrap;&quot;&gt;%3CmxGraphModel%3E%3Croot%3E%3CmxCell%20id%3D%220%22%2F%3E%3CmxCell%20id%3D%221%22%20parent%3D%220%22%2F%3E%3CmxCell%20id%3D%222%22%20value%3D%22os-photons-diagnostics%22%20style%3D%22rounded%3D0%3BwhiteSpace%3Dwrap%3Bhtml%3D1%3B%22%20vertex%3D%221%22%20parent%3D%221%22%3E%3CmxGeometry%20x%3D%221020%22%20y%3D%22-10%22%20width%3D%22120%22%20height%3D%2260%22%20as%3D%22geometry%22%2F%3E%3C%2FmxCell%3E%3C%2Froot%3E%3C%2FmxGraphModel%3E&lt;/span&gt;&lt;span style=&quot;color: rgba(0, 0, 0, 0); font-family: monospace; font-size: 0px; text-align: start; text-wrap-mode: nowrap;&quot;&gt;%3CmxGraphModel%3E%3Croot%3E%3CmxCell%20id%3D%220%22%2F%3E%3CmxCell%20id%3D%221%22%20parent%3D%220%22%2F%3E%3CmxCell%20id%3D%222%22%20value%3D%22os-photons-diagnostics%22%20style%3D%22rounded%3D0%3BwhiteSpace%3Dwrap%3Bhtml%3D1%3B%22%20vertex%3D%221%22%20parent%3D%221%22%3E%3CmxGeometry%20x%3D%221020%22%20y%3D%22-10%22%20width%3D%22120%22%20height%3D%2260%22%20as%3D%22geometry%22%2F%3E%3C%2FmxCell%3E%3C%2Froot%3E%3C%2FmxGraphModel%3E&lt;/span&gt;" style="rounded=0;whiteSpace=wrap;html=1;" vertex="1" parent="1">
          <mxGeometry x="986" y="2304" width="120" height="60" as="geometry" />
        </mxCell>
        <mxCell id="JFBT5RQmRZLoWsospSP8-10" value="os-qed-coulomb&lt;span style=&quot;color: rgba(0, 0, 0, 0); font-family: monospace; font-size: 0px; text-align: start; text-wrap-mode: nowrap;&quot;&gt;%3CmxGraphModel%3E%3Croot%3E%3CmxCell%20id%3D%220%22%2F%3E%3CmxCell%20id%3D%221%22%20parent%3D%220%22%2F%3E%3CmxCell%20id%3D%222%22%20value%3D%22os-photons-diagnostics%22%20style%3D%22rounded%3D0%3BwhiteSpace%3Dwrap%3Bhtml%3D1%3B%22%20vertex%3D%221%22%20parent%3D%221%22%3E%3CmxGeometry%20x%3D%221020%22%20y%3D%22-10%22%20width%3D%22120%22%20height%3D%2260%22%20as%3D%22geometry%22%2F%3E%3C%2FmxCell%3E%3C%2Froot%3E%3C%2FmxGraphModel%3E&lt;/span&gt;&lt;span style=&quot;color: rgba(0, 0, 0, 0); font-family: monospace; font-size: 0px; text-align: start; text-wrap-mode: nowrap;&quot;&gt;%3CmxGraphModel%3E%3Croot%3E%3CmxCell%20id%3D%220%22%2F%3E%3CmxCell%20id%3D%221%22%20parent%3D%220%22%2F%3E%3CmxCell%20id%3D%222%22%20value%3D%22os-photons-diagnostics%22%20style%3D%22rounded%3D0%3BwhiteSpace%3Dwrap%3Bhtml%3D1%3B%22%20vertex%3D%221%22%20parent%3D%221%22%3E%3CmxGeometry%20x%3D%221020%22%20y%3D%22-10%22%20width%3D%22120%22%20height%3D%2260%22%20as%3D%22geometry%22%2F%3E%3C%2FmxCell%3E%3C%2Froot%3E%3C%2FmxGraphModel%3E&lt;/span&gt;" style="rounded=0;whiteSpace=wrap;html=1;" vertex="1" parent="1">
          <mxGeometry x="905" y="2074" width="120" height="60" as="geometry" />
        </mxCell>
        <mxCell id="JFBT5RQmRZLoWsospSP8-11" value="" style="endArrow=classic;html=1;rounded=0;exitX=1;exitY=0.5;exitDx=0;exitDy=0;entryX=0;entryY=0.5;entryDx=0;entryDy=0;" edge="1" parent="1" source="JFBT5RQmRZLoWsospSP8-1" target="JFBT5RQmRZLoWsospSP8-4">
          <mxGeometry width="50" height="50" relative="1" as="geometry">
            <mxPoint x="1485" y="1834" as="sourcePoint" />
            <mxPoint x="1535" y="1784" as="targetPoint" />
          </mxGeometry>
        </mxCell>
        <mxCell id="JFBT5RQmRZLoWsospSP8-12" value="" style="endArrow=classic;html=1;rounded=0;exitX=1;exitY=0.5;exitDx=0;exitDy=0;entryX=0;entryY=0.5;entryDx=0;entryDy=0;" edge="1" parent="1" source="JFBT5RQmRZLoWsospSP8-1" target="JFBT5RQmRZLoWsospSP8-2">
          <mxGeometry width="50" height="50" relative="1" as="geometry">
            <mxPoint x="1485" y="1834" as="sourcePoint" />
            <mxPoint x="1535" y="1784" as="targetPoint" />
          </mxGeometry>
        </mxCell>
        <mxCell id="JFBT5RQmRZLoWsospSP8-13" value="" style="endArrow=classic;html=1;rounded=0;exitX=1;exitY=0.5;exitDx=0;exitDy=0;entryX=0;entryY=0.5;entryDx=0;entryDy=0;" edge="1" parent="1" source="JFBT5RQmRZLoWsospSP8-1" target="JFBT5RQmRZLoWsospSP8-3">
          <mxGeometry width="50" height="50" relative="1" as="geometry">
            <mxPoint x="1485" y="1834" as="sourcePoint" />
            <mxPoint x="1535" y="1784" as="targetPoint" />
          </mxGeometry>
        </mxCell>
        <mxCell id="JFBT5RQmRZLoWsospSP8-14" value="Section 1:&amp;nbsp;&lt;br&gt;&lt;div&gt;&lt;span style=&quot;background-color: transparent; color: light-dark(rgb(0, 0, 0), rgb(255, 255, 255));&quot;&gt;acompton&amp;nbsp;&lt;/span&gt;General Information&lt;/div&gt;&lt;div&gt;------&lt;/div&gt;&lt;div&gt;Subsequent sections:&amp;nbsp;&lt;/div&gt;&lt;div&gt;&lt;span style=&quot;background-color: transparent; color: light-dark(rgb(0, 0, 0), rgb(255, 255, 255));&quot;&gt;acompton&amp;nbsp;&lt;/span&gt;defining axes, tcs, and cdf as well as cdf, cs, probability, and spec subroutines.&amp;nbsp;&lt;/div&gt;" style="rounded=1;whiteSpace=wrap;html=1;" vertex="1" parent="1">
          <mxGeometry x="720" y="2044" width="175" height="125" as="geometry" />
        </mxCell>
        <mxCell id="JFBT5RQmRZLoWsospSP8-15" value="Section 1:&amp;nbsp;&lt;div&gt;Publicizing &quot;create_axions_acompton&quot;&amp;nbsp;&lt;/div&gt;&lt;div&gt;------&lt;/div&gt;&lt;div&gt;&lt;span style=&quot;background-color: initial;&quot;&gt;Section 2:&lt;/span&gt;&lt;/div&gt;&lt;div&gt;Subroutine &quot;create_axions_acompton&lt;span style=&quot;background-color: initial;&quot;&gt;&quot;&amp;nbsp;&lt;/span&gt;&lt;/div&gt;&lt;div&gt;&lt;span style=&quot;background-color: initial;&quot;&gt;------&lt;/span&gt;&lt;/div&gt;&lt;div&gt;&lt;span style=&quot;background-color: initial;&quot;&gt;Section 3:&lt;/span&gt;&lt;/div&gt;&lt;div&gt;Calling &quot;create_axions_acompton&lt;span style=&quot;background-color: initial;&quot;&gt;&quot; in &quot;&lt;b&gt;advance_photons&lt;/b&gt;&quot;&lt;/span&gt;&lt;/div&gt;" style="rounded=1;whiteSpace=wrap;html=1;" vertex="1" parent="1">
          <mxGeometry x="1115" y="2264" width="175" height="195" as="geometry" />
        </mxCell>
        <mxCell id="JFBT5RQmRZLoWsospSP8-16" value="Section 1:&amp;nbsp;&lt;div&gt;Interpolation of Ion density of acompton&amp;nbsp;&amp;nbsp;&lt;/div&gt;&lt;div&gt;------&lt;/div&gt;&lt;div&gt;&lt;span style=&quot;background-color: initial;&quot;&gt;Section 2:&lt;/span&gt;&lt;/div&gt;&lt;div&gt;diagnosing number of axions, their energy, and weighs.&lt;/div&gt;" style="rounded=1;whiteSpace=wrap;html=1;" vertex="1" parent="1">
          <mxGeometry x="1555" y="2275.25" width="175" height="117.5" as="geometry" />
        </mxCell>
        <mxCell id="JFBT5RQmRZLoWsospSP8-17" value="" style="endArrow=classic;html=1;rounded=0;exitX=0.5;exitY=1;exitDx=0;exitDy=0;entryX=0.5;entryY=0;entryDx=0;entryDy=0;" edge="1" parent="1" source="JFBT5RQmRZLoWsospSP8-10" target="JFBT5RQmRZLoWsospSP8-9">
          <mxGeometry width="50" height="50" relative="1" as="geometry">
            <mxPoint x="1255" y="2204" as="sourcePoint" />
            <mxPoint x="1305" y="2154" as="targetPoint" />
          </mxGeometry>
        </mxCell>
        <mxCell id="JFBT5RQmRZLoWsospSP8-18" value="" style="endArrow=classic;html=1;rounded=0;exitX=0.5;exitY=1;exitDx=0;exitDy=0;entryX=0.5;entryY=0;entryDx=0;entryDy=0;" edge="1" parent="1" source="JFBT5RQmRZLoWsospSP8-3" target="JFBT5RQmRZLoWsospSP8-9">
          <mxGeometry width="50" height="50" relative="1" as="geometry">
            <mxPoint x="1255" y="2204" as="sourcePoint" />
            <mxPoint x="1305" y="2154" as="targetPoint" />
          </mxGeometry>
        </mxCell>
        <mxCell id="JFBT5RQmRZLoWsospSP8-19" value="" style="endArrow=classic;html=1;rounded=0;exitX=0.5;exitY=1;exitDx=0;exitDy=0;entryX=0.428;entryY=-0.061;entryDx=0;entryDy=0;entryPerimeter=0;" edge="1" parent="1" source="JFBT5RQmRZLoWsospSP8-3" target="JFBT5RQmRZLoWsospSP8-8">
          <mxGeometry width="50" height="50" relative="1" as="geometry">
            <mxPoint x="1255" y="2204" as="sourcePoint" />
            <mxPoint x="1305" y="2154" as="targetPoint" />
          </mxGeometry>
        </mxCell>
        <mxCell id="JFBT5RQmRZLoWsospSP8-20" value="" style="sketch=0;html=1;aspect=fixed;strokeColor=none;shadow=0;align=center;fillColor=#2D9C5E;verticalAlign=top;labelPosition=center;verticalLabelPosition=bottom;shape=mxgraph.gcp2.check" vertex="1" parent="1">
          <mxGeometry x="950" y="1830" width="30" height="24" as="geometry" />
        </mxCell>
        <mxCell id="JFBT5RQmRZLoWsospSP8-42" value="" style="endArrow=none;html=1;rounded=0;" edge="1" parent="1">
          <mxGeometry width="50" height="50" relative="1" as="geometry">
            <mxPoint x="2148" y="1419" as="sourcePoint" />
            <mxPoint x="-310" y="1419" as="targetPoint" />
          </mxGeometry>
        </mxCell>
      </root>
    </mxGraphModel>
  </diagram>
</mxfile>
